<?xml version="1.0" encoding="UTF-8" standalone="no"?>
<svg
   xmlns:dc="http://purl.org/dc/elements/1.1/"
   xmlns:cc="http://creativecommons.org/ns#"
   xmlns:rdf="http://www.w3.org/1999/02/22-rdf-syntax-ns#"
   xmlns:svg="http://www.w3.org/2000/svg"
   xmlns="http://www.w3.org/2000/svg"
   viewBox="0 0 321.33334 98.666664"
   height="98.666664"
   width="321.33334"
   xml:space="preserve"
   id="svg2"
   version="1.1"><metadata
     id="metadata8"><rdf:RDF><cc:Work
         rdf:about=""><dc:format>image/svg+xml</dc:format><dc:type
           rdf:resource="http://purl.org/dc/dcmitype/StillImage" /></cc:Work></rdf:RDF></metadata><defs
     id="defs6" /><g
     transform="matrix(1.3333333,0,0,-1.3333333,0,98.666667)"
     id="g10"><g
       transform="scale(0.1)"
       id="g12"><path
         id="path14"
         style="fill:#ff0349;fill-opacity:1;fill-rule:evenodd;stroke:none"
         d="m 922.754,297.461 c 10.379,-4.742 20.41,-4.742 30.098,0 1.589,0.773 2.75,-1.652 3.168,-3.559 2.433,-11.797 3.136,-23.839 0,-36.422 -0.481,-1.878 -1.579,-4.335 -3.168,-3.554 -10.356,5.148 -20.407,5.148 -30.098,0 -1.566,-0.821 -2.641,1.687 -3.133,3.554 -3.344,12.563 -2.953,24.645 0,36.422 0.461,1.879 1.535,4.289 3.133,3.559" /><path
         id="path16"
         style="fill:#ff0349;fill-opacity:1;fill-rule:evenodd;stroke:none"
         d="m 960.496,296.273 c 10.508,0.895 20.383,12.864 35.52,21.321 13.034,7.273 34.954,13.664 41.454,17.179 15.56,-25.652 24.54,-51.753 29.03,-78.168 -19.33,-6.652 -38.7,-9.054 -58.05,-8.609 -14.337,17.637 -29.079,32.754 -47.376,40.871 -0.187,2.477 -0.394,4.938 -0.578,7.406" /><path
         id="path18"
         style="fill:#ff0349;fill-opacity:1;fill-rule:evenodd;stroke:none"
         d="m 961.801,283.832 c 18.754,-8.484 40.279,-30.391 64.559,-65.742 -4.09,-9.524 -16.48,-9.563 -20.59,-19.09 -4.08,-9.539 0.11,-28.531 -3.98,-38.055 -13.583,20.528 -27.079,37.395 -41.47,91.207 2.282,11.004 2.383,21.461 1.481,31.68" /><path
         id="path20"
         style="fill:#ff0349;fill-opacity:1;fill-rule:evenodd;stroke:none"
         d="m 914.875,296.273 c -10.512,0.895 -20.391,12.864 -35.523,21.321 -13.032,7.273 -34.95,13.664 -41.457,17.179 -15.551,-25.652 -24.536,-51.753 -29.028,-78.168 19.332,-6.652 38.692,-9.054 58.047,-8.609 14.34,17.637 29.086,32.754 47.379,40.871 0.191,2.477 0.398,4.938 0.582,7.406" /><path
         id="path22"
         style="fill:#ff0349;fill-opacity:1;fill-rule:evenodd;stroke:none"
         d="m 913.891,283.566 c -18.754,-8.476 -40.258,-30.39 -64.539,-65.734 4.089,-9.527 16.496,-9.574 20.578,-19.094 4.093,-9.523 -0.11,-28.535 3.996,-38.05 13.582,20.519 27.07,37.394 41.453,91.203 -2.285,10.996 -2.375,21.453 -1.488,31.675" /><path
         id="path24"
         style="fill:#ff0349;fill-opacity:1;fill-rule:evenodd;stroke:none"
         d="m 1107.02,260.879 h 554.57 v 15.883 h -554.57 v -15.883" /><path
         id="path26"
         style="fill:#ff0349;fill-opacity:1;fill-rule:evenodd;stroke:none"
         d="M 60.7695,260.879 H 770.68 v 15.883 H 60.7695 v -15.883" /><path
         id="path28"
         style="fill:#5c20a1;fill-opacity:1;fill-rule:nonzero;stroke:none"
         d="m 240.191,360.871 c -16.109,0 -30.105,2.684 -41.98,8.055 -11.883,5.367 -17.824,14.719 -17.824,28.054 0,8.458 2.621,17.895 7.855,28.301 7.246,-6.504 13.992,-11.058 20.235,-13.66 6.242,-2.605 12.988,-3.906 20.238,-3.906 20.137,0 35.133,9.109 45.004,27.328 9.867,18.215 14.797,38.383 14.797,60.508 0,41.312 -19.129,61.969 -57.383,61.969 -10.875,0 -20.137,-0.489 -27.789,-1.461 L 153.809,369.168 H 66.8242 l 82.1528,310.34 89.402,9.762 -28.391,-108.329 h 3.621 c 15.309,0 29.602,3.985 42.891,11.957 13.289,7.969 23.965,18.055 32.016,30.254 8.054,12.196 12.082,24.477 12.082,36.84 0,14.965 -6.543,27.488 -19.633,37.571 -13.086,10.085 -33.121,15.128 -60.106,15.128 -24.562,0 -48.523,-4.472 -71.882,-13.418 -23.356,-8.945 -42.383,-22.363 -57.0864,-40.257 -14.6953,-17.891 -22.0468,-39.528 -22.0468,-64.899 0,-12.035 1.4101,-20.414 4.2304,-25.129 2.8203,-4.718 4.2266,-7.402 4.2266,-8.05 -21.3438,0 -37.4492,3.496 -48.3242,10.492 -10.875,6.992 -16.3086,18.457 -16.3086,34.398 0,22.121 10.2656,43.102 30.8047,62.945 20.539,19.844 47.7226,35.868 81.5503,48.067 33.825,12.199 69.465,18.301 106.918,18.301 28.192,0 51.954,-3.582 71.282,-10.739 19.328,-7.156 33.726,-16.589 43.191,-28.3 9.465,-11.711 14.195,-24.563 14.195,-38.551 0,-14.961 -5.234,-29.438 -15.707,-43.43 -10.468,-13.984 -25.371,-25.371 -44.699,-34.156 24.16,-3.578 42.082,-12.606 53.762,-27.082 11.676,-14.473 17.515,-31.633 17.515,-51.477 0,-18.543 -4.328,-38.715 -12.984,-60.508 -8.66,-21.796 -22.957,-40.582 -42.891,-56.359 -19.933,-15.777 -45.406,-23.668 -76.414,-23.668" /><path
         id="path30"
         style="fill:#5c20a1;fill-opacity:1;fill-rule:nonzero;stroke:none"
         d="m 466.113,366.238 c -22.957,0 -42.086,6.344 -57.386,19.032 -15.305,12.687 -22.954,32.531 -22.954,59.531 0,24.074 5.938,49.363 17.817,75.879 11.883,26.511 29.601,48.957 53.16,67.336 23.559,18.382 51.648,27.574 84.266,27.574 16.511,0 28.793,-2.281 36.851,-6.836 8.051,-4.551 12.078,-10.57 12.078,-18.055 v -3.414 l 6.645,25.863 h 86.984 L 640.082,447.242 c -1.609,-4.879 -2.414,-10.086 -2.414,-15.617 0,-13.988 8.254,-20.98 24.766,-20.98 11.277,0 21.043,4.23 29.296,12.687 8.258,8.457 14.801,19.516 19.633,33.18 h 25.371 c -14.902,-35.133 -33.324,-58.961 -55.273,-71.485 -21.945,-12.523 -43.996,-18.789 -66.145,-18.789 -16.914,0 -30.503,3.825 -40.773,11.469 -10.27,7.645 -16.414,18.785 -18.426,33.426 -11.676,-13.34 -24.664,-24.156 -38.961,-32.449 -14.297,-8.297 -31.312,-12.446 -51.043,-12.446 z m 39.262,47.332 c 10.07,0 20.039,3.825 29.902,11.469 9.868,7.645 16.614,18.137 20.239,31.473 l 28.996,110.281 c 0,4.227 -2.016,8.375 -6.043,12.441 -4.028,4.067 -10.27,6.098 -18.727,6.098 -16.109,0 -30.605,-7.562 -43.492,-22.687 -12.887,-15.129 -22.957,-33.344 -30.203,-54.653 -7.25,-21.308 -10.871,-40.094 -10.871,-56.359 0,-16.266 2.918,-26.676 8.758,-31.231 5.839,-4.554 12.988,-6.832 21.441,-6.832" /><path
         id="path32"
         style="fill:#5c20a1;fill-opacity:1;fill-rule:nonzero;stroke:none"
         d="m 752.441,613.148 h 86.985 l -7.856,-30.253 c 13.696,9.757 26.078,17.242 37.153,22.445 11.074,5.203 23.054,7.808 35.941,7.808 12.887,0 23.055,-3.578 30.504,-10.734 7.453,-7.156 11.176,-15.777 11.176,-25.863 0,-9.434 -3.824,-17.731 -11.477,-24.887 -7.648,-7.156 -18.324,-10.734 -32.015,-10.734 -8.86,0 -14.797,1.707 -17.821,5.125 -3.019,3.414 -5.332,8.375 -6.945,14.883 -1.207,4.226 -2.414,7.316 -3.625,9.269 -1.207,1.953 -3.422,2.926 -6.645,2.926 -8.457,0 -15.605,-1.383 -21.445,-4.145 -5.836,-2.765 -13.387,-7.562 -22.652,-14.398 L 775.395,369.168 H 688.41 l 64.031,243.98" /><path
         id="path34"
         style="fill:#5c20a1;fill-opacity:1;fill-rule:nonzero;stroke:none"
         d="m 1026.69,367.215 c -29.807,0 -53.366,6.183 -70.682,18.543 -17.317,12.363 -25.973,31.879 -25.973,58.555 0,22.121 5.637,46.683 16.914,73.683 11.274,27 29.399,50.34 54.371,70.02 24.96,19.683 56.38,29.523 94.23,29.523 51.55,0 77.32,-26.023 77.32,-78.074 v -0.488 c 1.21,-0.325 3.42,-0.489 6.64,-0.489 13.29,0 28.6,2.848 45.91,8.539 17.32,5.696 33.03,12.61 47.12,20.739 l 5.44,-13.176 c -11.68,-10.082 -26.88,-18.621 -45.61,-25.617 -18.73,-6.993 -39.16,-11.953 -61.31,-14.879 -3.22,-29.606 -11.48,-55.465 -24.77,-77.586 -13.29,-22.121 -30.4,-39.203 -51.34,-51.238 -20.95,-12.036 -43.7,-18.055 -68.26,-18.055 z m 24.16,43.918 c 9.66,0 19.33,4.472 28.99,13.418 9.67,8.945 18.12,21.144 25.37,36.597 7.25,15.454 12.49,32.61 15.71,51.481 -10.87,1.953 -16.31,8.781 -16.31,20.492 0,13.34 6.24,22.121 18.73,26.352 -0.81,10.734 -2.82,18.136 -6.04,22.203 -3.23,4.066 -8.87,6.097 -16.92,6.097 -13.29,0 -26.18,-7.808 -38.66,-23.421 -12.48,-15.614 -22.55,-34.321 -30.2,-56.118 -7.65,-21.793 -11.48,-40.988 -11.48,-57.578 0,-15.613 2.22,-26.105 6.65,-31.472 4.43,-5.368 12.48,-8.051 24.16,-8.051" /><path
         id="path36"
         style="fill:#5c20a1;fill-opacity:1;fill-rule:nonzero;stroke:none"
         d="m 1276.16,366.238 c -22.95,0 -42.08,6.344 -57.38,19.032 -15.31,12.687 -22.96,32.531 -22.96,59.531 0,24.074 5.94,49.363 17.82,75.879 11.88,26.511 29.6,48.957 53.16,67.336 23.56,18.382 51.65,27.574 84.27,27.574 16.51,0 28.79,-2.281 36.85,-6.836 8.05,-4.551 12.08,-10.57 12.08,-18.055 v -1.949 l 29.6,112.23 89.4,9.758 -69.47,-263.496 c -1.61,-4.879 -2.42,-10.086 -2.42,-15.617 0,-6.504 1.92,-11.141 5.74,-13.906 3.83,-2.766 10.17,-4.149 19.03,-4.149 11.28,0 21.04,3.907 29.3,11.711 8.25,7.809 14.8,18.219 19.63,31.231 h 25.37 c -24.56,-58.231 -65.04,-87.344 -121.41,-87.344 -16.52,0 -29.91,3.578 -40.18,10.734 -10.27,7.157 -16.61,17.567 -19.02,31.231 -10.48,-13.012 -23.06,-23.75 -37.76,-32.207 -14.7,-8.457 -31.91,-12.688 -51.65,-12.688 z m 39.27,47.332 c 9.66,0 19.43,3.578 29.29,10.735 9.87,7.16 16.62,17.082 20.24,29.769 v 2.438 l 29.6,111.742 c -3.62,11.387 -11.88,17.078 -24.77,17.078 -16.1,0 -30.6,-7.562 -43.49,-22.687 -12.89,-15.129 -22.96,-33.344 -30.2,-54.653 -7.25,-21.308 -10.87,-40.094 -10.87,-56.359 0,-16.266 2.91,-26.676 8.75,-31.231 5.84,-4.554 12.99,-6.832 21.45,-6.832" /><path
         id="path38"
         style="fill:#5c20a1;fill-opacity:1;fill-rule:nonzero;stroke:none"
         d="m 1593.3,366.238 c -22.96,0 -42.09,6.344 -57.39,19.032 -15.3,12.687 -22.95,32.531 -22.95,59.531 0,24.074 5.93,49.363 17.82,75.879 11.88,26.511 29.6,48.957 53.15,67.336 23.57,18.382 51.65,27.574 84.27,27.574 16.51,0 28.8,-2.281 36.85,-6.836 8.06,-4.551 12.08,-10.57 12.08,-18.055 v -3.414 l 6.65,25.863 h 86.98 l -43.49,-165.906 c -1.61,-4.879 -2.42,-10.086 -2.42,-15.617 0,-13.988 8.26,-20.98 24.77,-20.98 11.27,0 21.04,4.23 29.3,12.687 8.25,8.457 14.79,19.516 19.63,33.18 h 25.37 c -14.9,-35.133 -33.33,-58.961 -55.27,-71.485 -21.95,-12.523 -44,-18.789 -66.15,-18.789 -16.91,0 -30.5,3.825 -40.77,11.469 -10.27,7.645 -16.41,18.785 -18.43,33.426 -11.67,-13.34 -24.66,-24.156 -38.96,-32.449 -14.29,-8.297 -31.31,-12.446 -51.04,-12.446 z m 39.26,47.332 c 10.07,0 20.04,3.825 29.9,11.469 9.87,7.645 16.61,18.137 20.24,31.473 l 29,110.281 c 0,4.227 -2.02,8.375 -6.05,12.441 -4.02,4.067 -10.26,6.098 -18.72,6.098 -16.11,0 -30.61,-7.562 -43.5,-22.687 -12.88,-15.129 -22.95,-33.344 -30.2,-54.653 -7.25,-21.308 -10.87,-40.094 -10.87,-56.359 0,-16.266 2.92,-26.676 8.76,-31.231 5.84,-4.554 12.99,-6.832 21.44,-6.832" /><path
         id="path40"
         style="fill:#5c20a1;fill-opacity:1;fill-rule:nonzero;stroke:none"
         d="m 1886.52,241.047 c 3.05,0 5.46,-1.469 7.22,-4.406 1.76,-2.938 2.64,-6.641 2.64,-11.102 0,-5.406 -0.82,-9.633 -2.46,-12.687 -1.65,-3.055 -4.23,-5.758 -7.76,-8.106 -20.2,-13.625 -35,-23.73 -44.4,-30.308 l -22.55,-15.153 c -8.93,-48.633 -20.62,-86.8709 -35.07,-114.7069 -14.45,-27.8437 -32.83,-41.7656 -55.15,-41.7656 -11.98,0 -21.74,3.70313 -29.25,11.1016 -7.52,7.4023 -11.28,17.0937 -11.28,29.0742 0,16.6836 6.58,34.5976 19.74,53.7461 13.15,19.1446 37.82,42.6996 74,70.6566 l 2.12,13.746 c -4,-6.344 -9.22,-11.219 -15.69,-14.629 -6.46,-3.406 -12.86,-5.11 -19.2,-5.11 -14.57,0 -26.2,5.286 -34.89,15.86 -8.69,10.574 -13.04,24.433 -13.04,41.586 0,18.793 4.35,36.59 13.04,53.39 8.69,16.797 20.26,30.309 34.71,40.528 14.45,10.218 29.78,15.328 45.99,15.328 5.17,0 8.64,-0.996 10.4,-2.996 1.76,-1.996 3.23,-5.578 4.4,-10.75 4.46,0.941 9.64,1.414 15.51,1.414 5.87,0 10.04,-0.883 12.51,-2.645 2.47,-1.761 3.7,-5.226 3.7,-10.394 0,-2.821 -0.12,-5.051 -0.35,-6.696 -0.94,-7.285 -3.88,-25.726 -8.81,-55.328 -0.94,-5.64 -1.94,-11.808 -3,-18.504 -1.05,-6.695 -2.17,-13.804 -3.35,-21.32 18.09,14.098 35.48,26.547 52.16,37.356 3.05,1.878 5.75,2.82 8.11,2.82 z m -124.41,-44.055 c 5.41,0 10.58,3.293 15.51,9.867 4.93,6.579 8.46,15.977 10.57,28.196 l 11.28,60.261 c -9.63,-0.234 -18.56,-3.933 -26.78,-11.101 -8.23,-7.164 -14.81,-16.621 -19.74,-28.371 -4.93,-11.746 -7.4,-24.199 -7.4,-37.352 0,-7.285 1.47,-12.687 4.41,-16.211 2.93,-3.523 6.99,-5.289 12.15,-5.289 z M 1732.86,37 c 5.88,0 12.52,7.0469 19.92,21.1445 7.4,14.0938 14.51,36.5352 21.31,67.3085 C 1756,109.949 1742.96,95.9688 1734.98,83.5195 1726.99,71.0664 1723,60.1406 1723,50.7422 c 0,-3.9961 0.76,-7.2813 2.29,-9.8672 1.52,-2.582 4.05,-3.875 7.57,-3.875" /><path
         id="path42"
         style="fill:#5c20a1;fill-opacity:1;fill-rule:nonzero;stroke:none"
         d="m 1921.05,350.645 c -9.87,0 -17.26,2.293 -22.2,6.871 -4.93,4.582 -7.4,10.984 -7.4,19.207 0,8.222 3.23,15.093 9.69,20.617 6.46,5.523 14.51,8.281 24.14,8.281 8.7,0 15.74,-2.113 21.15,-6.344 5.4,-4.226 8.1,-10.218 8.1,-17.972 0,-9.399 -3.05,-16.86 -9.16,-22.375 -6.11,-5.524 -14.21,-8.285 -24.32,-8.285 z m -2.82,-189.247 c -15.27,0 -26.37,5.407 -33.3,16.211 -6.93,10.809 -10.39,25.141 -10.39,42.996 0,10.575 1.35,24.141 4.05,40.704 2.7,16.562 6.16,32.007 10.39,46.339 2.12,7.524 4.94,12.688 8.46,15.508 3.52,2.821 9.17,4.227 16.92,4.227 11.98,0 17.97,-3.992 17.97,-11.981 0,-5.871 -2.23,-19.5 -6.7,-40.879 -5.63,-25.839 -8.45,-43.343 -8.45,-52.507 0,-7.047 0.94,-12.453 2.82,-16.211 1.88,-3.762 5.05,-5.641 9.51,-5.641 4.23,0 9.52,2.938 15.86,8.813 6.34,5.871 14.8,15.152 25.37,27.839 2.82,3.289 5.99,4.934 9.52,4.934 3.05,0 5.46,-1.41 7.22,-4.227 1.77,-2.82 2.65,-6.699 2.65,-11.632 0,-9.395 -2.24,-16.68 -6.7,-21.848 -23.26,-28.43 -44.99,-42.645 -65.2,-42.645" /><path
         id="path44"
         style="fill:#5c20a1;fill-opacity:1;fill-rule:nonzero;stroke:none"
         d="m 2102.19,261.836 c 6.58,0 9.87,-4.934 9.87,-14.801 0,-18.558 -14.56,-27.84 -43.7,-27.84 -5.64,0 -13.74,1.059 -24.31,3.172 3.05,-14.566 5.58,-30.719 7.57,-48.457 2,-17.738 3,-32.363 3,-43.875 0,-25.375 -4.12,-44.7577 -12.34,-58.1483 -8.22,-13.3906 -19.03,-20.0859 -32.42,-20.0859 -16.91,0 -28.95,11.9805 -36.12,35.9453 -7.17,23.9649 -10.75,60.1449 -10.75,108.5429 0,45.109 4.88,90.863 14.62,137.262 9.75,46.402 23.14,84.816 40.18,115.238 17.03,30.43 35.77,45.641 56.21,45.641 11.04,0 19.68,-4.934 25.9,-14.801 6.23,-9.867 9.34,-23.141 9.34,-39.824 0,-55.211 -33.01,-115.356 -99.03,-180.434 -2.35,-23.027 -3.52,-43.23 -3.52,-60.613 0,-24.199 0.82,-49.047 2.47,-74.539 1.64,-25.4885 4.34,-38.2346 8.1,-38.2346 7.05,0 10.58,12.2187 10.58,36.6526 0,18.324 -1.24,36.062 -3.71,53.211 -2.46,17.152 -5.81,35.242 -10.04,54.273 -0.23,3.051 0.76,6.93 3,11.629 2.23,4.699 4.99,8.813 8.28,12.336 3.29,3.523 6.22,5.285 8.81,5.285 4.7,0 10.33,-0.234 16.91,-0.707 2.12,-0.234 4.58,-0.351 7.4,-0.351 9.4,0 19.86,0.824 31.37,2.468 1.88,0.235 3.87,0.469 5.99,0.703 2.11,0.239 4.23,0.352 6.34,0.352 z m -35.59,197.703 c -4.23,0 -9.46,-7.164 -15.68,-21.496 -6.23,-14.332 -12.4,-33.301 -18.51,-56.914 -6.1,-23.613 -11.39,-48.574 -15.86,-74.887 18.8,21.379 33.25,43.641 43.35,66.781 10.1,23.145 15.28,44.817 15.51,65.02 0,14.332 -2.94,21.496 -8.81,21.496" /><path
         id="path46"
         style="fill:#5c20a1;fill-opacity:1;fill-rule:nonzero;stroke:none"
         d="m 2249.5,241.75 c 3.05,0 5.46,-1.41 7.23,-4.227 1.76,-2.82 2.64,-6.699 2.64,-11.632 0,-9.395 -2.23,-16.68 -6.7,-21.848 -10.1,-12.453 -21.14,-22.676 -33.12,-30.664 -11.98,-7.984 -25.73,-11.981 -41.23,-11.981 -47.93,0 -71.89,33.715 -71.89,101.145 0,10.336 0.35,20.793 1.05,31.363 h -13.75 c -7.04,0 -11.8,1.293 -14.27,3.875 -2.46,2.586 -3.7,6.696 -3.7,12.336 0,13.156 5.29,19.735 15.86,19.735 h 20.09 c 3.99,25.843 10.1,49.457 18.33,70.836 8.22,21.378 18.14,38.41 29.77,51.097 11.64,12.688 24.14,19.031 37.53,19.031 9.87,0 17.62,-4.347 23.27,-13.039 5.63,-8.691 8.45,-19.617 8.45,-32.773 0,-36.414 -15.27,-68.133 -45.81,-95.152 h 39.47 c 3.76,0 6.46,-0.821 8.1,-2.469 1.65,-1.641 2.47,-4.695 2.47,-9.16 0,-16.211 -13.27,-24.317 -39.82,-24.317 h -43 c -0.47,-11.746 -0.7,-20.91 -0.7,-27.488 0,-24.434 2.88,-41.582 8.64,-51.449 5.75,-9.867 14.86,-14.805 27.3,-14.805 10.11,0 19.04,3.055 26.79,9.164 7.75,6.11 16.91,15.27 27.49,27.488 2.81,3.289 5.99,4.934 9.51,4.934 z m -61.67,195.238 c -3.53,0 -7.46,-4.41 -11.81,-13.218 -4.34,-8.809 -8.45,-21.028 -12.33,-36.649 -3.88,-15.625 -7.11,-32.953 -9.69,-51.98 13.86,11.98 24.25,25.429 31.19,40.351 6.93,14.918 10.39,28.485 10.39,40.699 0,13.864 -2.58,20.797 -7.75,20.797" /><path
         id="path48"
         style="fill:#5c20a1;fill-opacity:1;fill-rule:nonzero;stroke:none"
         d="m 2296.38,153.645 c -12.22,0 -21.56,2.82 -28.02,8.46 -6.47,5.637 -9.7,11.981 -9.7,19.032 0,6.109 2.24,11.39 6.7,15.855 4.46,4.465 11.04,6.696 19.74,6.696 3.05,0 6.63,-0.293 10.75,-0.879 4.11,-0.59 7.22,-1 9.33,-1.235 -0.23,6.11 -1.58,11.864 -4.05,17.27 -2.47,5.402 -5.58,10.629 -9.34,15.683 -3.75,5.051 -7.28,9.453 -10.57,13.215 -7.28,-13.863 -14.51,-25.375 -21.67,-34.539 -7.17,-9.16 -14.98,-17.855 -23.44,-26.078 -4.23,-4.23 -8.69,-6.344 -13.39,-6.344 -3.76,0 -6.81,1.352 -9.16,4.055 -2.35,2.699 -3.53,6.047 -3.53,10.043 0,4.699 1.65,9.043 4.93,13.039 l 4.59,5.637 c 12.92,15.98 22.67,29.136 29.25,39.472 3.99,6.813 8.69,15.918 14.09,27.313 5.41,11.394 10.69,23.199 15.86,35.418 4.47,10.336 13.75,15.504 27.84,15.504 6.58,0 11.16,-0.586 13.75,-1.762 2.58,-1.176 3.87,-3.055 3.87,-5.641 0,-1.406 -0.46,-3.636 -1.41,-6.695 -0.94,-3.051 -2.23,-6.105 -3.87,-9.16 -4.23,-8.457 -6.34,-15.625 -6.34,-21.496 0,-3.524 1.23,-7.403 3.7,-11.633 2.46,-4.227 6.28,-9.516 11.45,-15.859 7.51,-9.868 13.21,-18.266 17.09,-25.196 3.88,-6.929 5.81,-14.507 5.81,-22.73 0,-2.352 -0.23,-5.637 -0.7,-9.867 11.51,4.465 25.02,16.328 40.53,35.593 2.82,3.289 5.99,4.934 9.51,4.934 3.06,0 5.47,-1.41 7.23,-4.227 1.76,-2.82 2.64,-6.699 2.64,-11.632 0,-8.93 -2.23,-16.211 -6.69,-21.848 -11.75,-14.566 -22.97,-24.496 -33.66,-29.781 -10.69,-5.285 -23.91,-8.164 -39.65,-8.633 -9.39,-7.988 -20.55,-11.984 -33.47,-11.984" /><path
         id="path50"
         style="fill:#3d8501;fill-opacity:1;fill-rule:evenodd;stroke:none"
         d="m 2210.53,513.59 c -22.57,3.765 -36.88,-6.942 -47.21,-18.918 -30.2,31.383 -32.59,72.441 -19.25,108.281 40.52,-7.887 62.68,-37.672 66.46,-89.363" /><path
         id="path52"
         style="fill:#3d8501;fill-opacity:1;fill-rule:evenodd;stroke:none"
         d="m 2258.18,479.57 c -8.03,21.43 -24.45,28.465 -39.99,31.422 12.08,41.848 46.44,64.446 84.15,70.821 13.43,-39.047 -1.29,-73.125 -44.16,-102.243" /><path
         id="path54"
         style="fill:#3d8501;fill-opacity:1;fill-rule:evenodd;stroke:none"
         d="m 2252.54,421.293 c 14.55,17.664 12.43,35.41 7.22,50.34 42.28,10.469 79.03,-7.992 103.4,-37.465 -27.09,-31.156 -63.97,-35.445 -110.62,-12.875" /><path
         id="path56"
         style="fill:#ff0349;fill-opacity:1;fill-rule:evenodd;stroke:none"
         d="m 2204.3,491.574 c 20.79,0 37.65,-16.863 37.65,-37.648 0,-20.789 -16.86,-37.653 -37.65,-37.653 -20.78,0 -37.65,16.864 -37.65,37.653 0,20.785 16.87,37.648 37.65,37.648" /></g></g></svg>