<?xml version="1.0" encoding="UTF-8" standalone="no"?>
<svg
   xmlns:dc="http://purl.org/dc/elements/1.1/"
   xmlns:cc="http://creativecommons.org/ns#"
   xmlns:rdf="http://www.w3.org/1999/02/22-rdf-syntax-ns#"
   xmlns:svg="http://www.w3.org/2000/svg"
   xmlns="http://www.w3.org/2000/svg"
   viewBox="0 0 172 172"
   height="172"
   width="172"
   xml:space="preserve"
   id="svg2"
   version="1.1"><metadata
     id="metadata8"><rdf:RDF><cc:Work
         rdf:about=""><dc:format>image/svg+xml</dc:format><dc:type
           rdf:resource="http://purl.org/dc/dcmitype/StillImage" /></cc:Work></rdf:RDF></metadata><defs
     id="defs6"><clipPath
       id="clipPath20"
       clipPathUnits="userSpaceOnUse"><path
         style="clip-rule:evenodd"
         id="path18"
         d="m 301.664,1282.29 h 683.594 c 163.202,0 296.722,-133.53 296.722,-296.731 V 301.965 C 1281.98,138.762 1148.46,5.23828 985.258,5.23828 H 301.664 C 138.461,5.23828 4.93359,138.762 4.93359,301.965 v 683.594 c 0,163.201 133.52741,296.731 296.73041,296.731 z" /></clipPath></defs><g
     transform="matrix(1.3333333,0,0,-1.3333333,0,172)"
     id="g10"><g
       transform="scale(0.1)"
       id="g12"><g
         id="g14"><g
           clip-path="url(#clipPath20)"
           id="g16"><path
             id="path22"
             style="fill:#2e3192;fill-opacity:1;fill-rule:nonzero;stroke:none"
             d="M 456.133,1939.52 2029.53,859.375 1922.8,703.914 349.41,1784.07 Z" /><path
             id="path24"
             style="fill:#2e3192;fill-opacity:1;fill-rule:nonzero;stroke:none"
             d="M 349.41,1784.07 1922.8,703.914 1837.42,579.551 264.031,1659.7 Z" /><path
             id="path26"
             style="fill:#5f2779;fill-opacity:1;fill-rule:nonzero;stroke:none"
             d="M 264.031,1659.7 1837.42,579.551 1752.04,455.184 178.652,1535.33 Z" /><path
             id="path28"
             style="fill:#8f215f;fill-opacity:1;fill-rule:nonzero;stroke:none"
             d="M 178.652,1535.33 1752.04,455.184 1666.66,330.816 93.2734,1410.97 Z" /><path
             id="path30"
             style="fill:#bf1d42;fill-opacity:1;fill-rule:nonzero;stroke:none"
             d="M 93.2734,1410.97 1666.66,330.816 1581.29,206.449 7.89453,1286.6 Z" /><path
             id="path32"
             style="fill:#ed1c24;fill-opacity:1;fill-rule:nonzero;stroke:none"
             d="M 7.89453,1286.6 1581.29,206.449 1495.91,82.082 -77.4844,1162.23 Z" /><path
             id="path34"
             style="fill:#ed1c24;fill-opacity:1;fill-rule:nonzero;stroke:none"
             d="M -77.4844,1162.23 1495.91,82.082 1389.18,-73.375 -184.211,1006.78 Z" /><path
             id="path36"
             style="fill:#ed1c24;fill-opacity:1;fill-rule:nonzero;stroke:none"
             d="M -77.4844,1162.23 1495.91,82.082 1410.53,-42.2852 -162.863,1037.87 Z" /><path
             id="path38"
             style="fill:#f03c1f;fill-opacity:1;fill-rule:nonzero;stroke:none"
             d="M -162.863,1037.87 1410.53,-42.2852 1325.15,-166.648 -248.242,913.5 Z" /><path
             id="path40"
             style="fill:#f25c19;fill-opacity:1;fill-rule:nonzero;stroke:none"
             d="M -248.242,913.5 1325.15,-166.648 1239.77,-291.016 -333.621,789.133 Z" /><path
             id="path42"
             style="fill:#f57c14;fill-opacity:1;fill-rule:nonzero;stroke:none"
             d="M -333.621,789.133 1239.77,-291.016 1154.39,-415.383 -419,664.77 Z" /><path
             id="path44"
             style="fill:#f89c0e;fill-opacity:1;fill-rule:nonzero;stroke:none"
             d="M -419,664.77 1154.39,-415.383 1069.01,-539.75 -504.379,540.402 Z" /><path
             id="path46"
             style="fill:#f89c0e;fill-opacity:1;fill-rule:nonzero;stroke:none"
             d="M -504.379,540.402 1069.01,-539.75 962.289,-695.207 -611.105,384.945 Z" /></g></g><path
         id="path48"
         style="fill:#ffffff;fill-opacity:1;fill-rule:evenodd;stroke:none"
         d="m 444.859,1110.91 h 397.204 c 147.703,0 268.547,-120.844 268.547,-268.547 V 445.16 c 0,-147.703 -120.844,-268.543 -268.547,-268.543 H 444.859 c -147.707,0 -268.543,120.84 -268.543,268.543 v 397.203 c 0,147.703 120.836,268.547 268.543,268.547 z m -10.668,-86.79 h 418.536 c 94.086,0 171.083,-77.007 171.083,-171.089 V 434.496 C 1023.81,340.41 946.813,263.41 852.727,263.41 H 434.191 c -94.082,0 -171.086,77 -171.086,171.086 v 418.535 c 0,94.082 77.004,171.089 171.086,171.089 z m 460.278,-75.831 c 31.097,0 56.316,-25.215 56.316,-56.301 0,-31.105 -25.219,-56.336 -56.316,-56.336 -31.11,0 -56.34,25.231 -56.34,56.336 0,31.086 25.23,56.301 56.34,56.301 z M 643.461,800.953 c 86.797,0 157.187,-70.394 157.187,-157.191 0,-86.797 -70.39,-157.188 -157.187,-157.188 -86.797,0 -157.191,70.391 -157.191,157.188 0,86.797 70.394,157.191 157.191,157.191 z m 0,87.027 c 134.871,0 244.219,-109.343 244.219,-244.218 0,-134.871 -109.348,-244.219 -244.219,-244.219 -134.875,0 -244.219,109.348 -244.219,244.219 0,134.875 109.344,244.218 244.219,244.218" /></g></g></svg>