<?xml version="1.0" encoding="UTF-8" standalone="no"?>
<svg
   xmlns:dc="http://purl.org/dc/elements/1.1/"
   xmlns:cc="http://creativecommons.org/ns#"
   xmlns:rdf="http://www.w3.org/1999/02/22-rdf-syntax-ns#"
   xmlns:svg="http://www.w3.org/2000/svg"
   xmlns="http://www.w3.org/2000/svg"
   viewBox="0 0 1062.6667 136"
   height="136"
   width="1062.6667"
   xml:space="preserve"
   id="svg2"
   version="1.1"><metadata
     id="metadata8"><rdf:RDF><cc:Work
         rdf:about=""><dc:format>image/svg+xml</dc:format><dc:type
           rdf:resource="http://purl.org/dc/dcmitype/StillImage" /></cc:Work></rdf:RDF></metadata><defs
     id="defs6" /><g
     transform="matrix(1.3333333,0,0,-1.3333333,0,136)"
     id="g10"><g
       transform="scale(0.1)"
       id="g12"><path
         id="path14"
         style="fill:#184bb2;fill-opacity:1;fill-rule:nonzero;stroke:none"
         d="M 64.375,240.82 C 160.547,191.18 324.219,137.828 425.305,200.797 494.289,243.77 469.914,321.992 411.5,360.211 260.938,458.73 7.78125,527.145 7.78125,743.227 c 0,235.546 284.65275,285.313 463.76175,229.117 46.926,-14.719 88.332,-30.824 124.219,-48.309 L 536.414,780.492 C 447.363,823.578 328.059,869.512 233.453,815 168.82,777.758 188.195,695.293 241.734,658.34 391.238,555.164 652.352,490.879 652.352,273.945 652.352,16.5 336.582,-10.6563 149.258,42.0664 87.1484,59.5469 45.5078,77.4961 24.3477,95.8984 Z M 1166.48,47.5898 C 1079.93,-22.7344 912.465,1.35547 835.918,68.9844 788.539,110.832 764.836,170.43 764.836,247.723 c 0,105.355 0,210.715 0,316.07 H 675.117 V 701.82 h 89.719 v 158.727 l 178.047,31.742 V 701.82 h 121.467 l 55.2,-138.027 H 942.883 V 279.469 c 0,-105.875 84.147,-145.641 171.147,-102.137 z m 363.69,-30.3632 c -211.79,0 -336.78,147.0234 -336.78,353.3364 0,209.898 137.04,350.582 347.82,350.582 214.99,0 350.58,-144.657 350.58,-357.481 0,-213.941 -152.63,-346.4374 -361.62,-346.4374 z m 176.67,346.4374 c 0,102.957 -44.51,204.274 -161.49,204.274 -118.66,0 -167.01,-87.137 -167.01,-195.997 0,-103.957 34.96,-201.511 154.59,-201.511 117.99,0 173.91,81.828 173.91,193.234 z m 602.46,204.274 c -165.96,0 -203.33,-233.094 -118.7,-342.297 72.44,-93.477 201.71,-49.953 289.85,-9.664 l 51.07,-129.7426 c -130.47,-99.7735 -363.97,-92.52737 -477.56,26.2266 -124.53,130.184 -123.11,381.492 0,512.066 119.42,126.657 340.42,121.457 477.56,26.223 l -51.07,-128.359 c -55.5,25.367 -109.31,45.547 -171.15,45.547 z m 494.81,440.292 V 458.898 L 3091.2,722.523 3191.95,595.539 3004.24,431.293 3249.92,33.7891 H 3044.27 L 2875.88,316.734 2804.11,253.242 V 33.7891 H 2626.06 V 993.047 Z m 888.17,-485.839 c -41.84,19.129 -249.82,97.328 -249.82,-4.145 0,-34.933 72.74,-56.305 96.61,-64.867 100.88,-36.195 227.74,-103.34 227.74,-226.359 0,-245.477 -361.13,-255.1489 -510.68,-140.7856 l 53.83,129.7426 c 67.27,-30.754 179.47,-69.497 251.2,-31.743 87.85,46.231 -45.01,113.329 -82.82,125.598 -95.59,31.027 -222.21,89.731 -222.21,207.035 0,248.895 340.49,234.891 489.98,133.883 l -53.83,-128.359" /><path
         id="path16"
         style="fill:#019934;fill-opacity:1;fill-rule:nonzero;stroke:none"
         d="M 4613.81,33.7891 4483.84,160.539 C 4393.43,64.8438 4286,16.9922 4161.09,16.9922 c -94.77,0 -168.8,24.4453 -221.75,73.1523 -53.09,48.8205 -79.6,110.8825 -79.6,186.3325 0,123.992 74.53,219.226 223.83,285.707 -72.93,83.968 -109.27,160.8 -109.27,230.5 0,62.339 22.09,115.257 66.48,158.726 127.8,125.15 378.42,68.4 378.42,-129.742 0,-144.363 -112.29,-222.668 -231.88,-276.965 67.4,-71.543 166.31,-169.078 296.52,-292.609 56.12,83.734 86.03,181.043 89.71,292.609 h 64.64 C 4634.97,424.621 4597.7,312.824 4526.39,209.074 4603.23,133.625 4664.41,74.7344 4710.2,32.4063 Z M 4144.07,588.41 c 97.65,43.367 209.8,103.141 209.8,225.207 0,85.563 -62.6,146.074 -147.69,146.074 -97.08,0 -166.55,-71.668 -166.55,-168.386 0,-57.512 34.96,-125.141 104.44,-202.895 z m 298.59,-386.234 c -149.07,144.234 -254.42,249.59 -316.07,316.07 -134.35,-58.195 -201.52,-137.332 -201.52,-237.168 0,-60.496 21.58,-110.48 64.41,-149.293 42.97,-38.9334 101.91,-58.203 176.9,-58.203 102.83,0 195.08,42.789 276.28,128.594" /><path
         id="path18"
         style="fill:#184bb2;fill-opacity:1;fill-rule:nonzero;stroke:none"
         d="M 4790.38,33.7891 V 972.344 h 293.99 c 102.13,0 189.56,-23.239 262.24,-69.703 155.6,-99.461 143.02,-369.504 -8.28,-466.516 -116.83,-74.906 -237.94,-75.223 -369.9,-75.223 V 33.7891 Z M 5078.85,823.277 H 4968.43 V 508.586 c 123.83,0 291.27,-15.898 298.13,151.824 4.89,119.563 -76.83,162.867 -187.71,162.867 z m 841.24,-120.078 35.89,-143.543 c -81.39,0 -164.74,-51.66 -223.6,-103.519 V 33.7891 H 5552.95 V 703.199 h 93.85 l 59.35,-97.996 c 56.46,48.922 137.03,97.996 213.94,97.996 z M 6311.38,17.2266 c -211.78,0 -336.78,147.0234 -336.78,353.3364 0,209.898 137.04,350.582 347.82,350.582 214.99,0 350.58,-144.657 350.58,-357.481 0,-213.945 -152.63,-346.4374 -361.62,-346.4374 z m 176.67,346.4374 c 0,102.957 -44.5,204.274 -161.49,204.274 -118.65,0 -167.01,-87.137 -167.01,-195.997 0,-103.961 34.96,-201.511 154.59,-201.511 117.99,0 173.91,81.824 173.91,193.234 z m 309.86,389.227 c 0,77.289 22.78,138.261 68.32,182.879 75.43,73.91 239.06,95.14 326.42,24.152 L 7141.58,830.18 c -45.27,18.113 -110.76,34.859 -142.85,-15.871 -23.93,-37.836 -21.39,-82.176 -21.39,-124.911 h 126.98 l 56.59,-139.406 H 6977.34 V 33.7891 H 6797.91 V 549.992 h -103.52 v 139.406 h 103.52 z m 532.07,247.058 c 133.86,0 133.87,-201.511 0,-201.511 -130.41,0 -130.41,201.511 0,201.511 z m 89.71,-296.75 V 33.7891 H 7240.26 V 703.199 Z M 7962.8,47.5898 c -86.55,-70.3242 -254.01,-46.23433 -330.56,21.3946 -47.38,41.8476 -71.08,101.4456 -71.08,178.7386 0,105.355 0,210.715 0,316.07 h -89.72 V 701.82 h 89.72 v 158.727 l 178.05,31.742 V 701.82 h 121.46 l 55.21,-138.027 H 7739.21 V 279.469 c 0,-105.879 84.14,-145.641 171.15,-102.137 L 7962.8,47.5898" /></g></g></svg>