<?xml version="1.0" encoding="UTF-8" standalone="no"?>
<svg
   xmlns:dc="http://purl.org/dc/elements/1.1/"
   xmlns:cc="http://creativecommons.org/ns#"
   xmlns:rdf="http://www.w3.org/1999/02/22-rdf-syntax-ns#"
   xmlns:svg="http://www.w3.org/2000/svg"
   xmlns="http://www.w3.org/2000/svg"
   viewBox="0 0 1348 226.66667"
   height="226.66667"
   width="1348"
   xml:space="preserve"
   id="svg2"
   version="1.1"><metadata
     id="metadata8"><rdf:RDF><cc:Work
         rdf:about=""><dc:format>image/svg+xml</dc:format><dc:type
           rdf:resource="http://purl.org/dc/dcmitype/StillImage" /></cc:Work></rdf:RDF></metadata><defs
     id="defs6" /><g
     transform="matrix(1.3333333,0,0,-1.3333333,0,226.66667)"
     id="g10"><g
       transform="scale(0.1)"
       id="g12"><path
         id="path14"
         style="fill:#184bb2;fill-opacity:1;fill-rule:nonzero;stroke:none"
         d="m 2204.38,580.82 c 96.17,-49.64 259.84,-102.992 360.92,-40.023 68.99,42.973 44.61,121.195 -13.8,159.414 -150.56,98.519 -403.72,166.934 -403.72,383.019 0,235.54 284.65,285.31 463.76,229.11 46.93,-14.71 88.34,-30.82 124.22,-48.3 l -59.35,-143.55 c -89.05,43.09 -208.35,89.02 -302.96,34.51 -64.63,-37.24 -45.25,-119.71 8.28,-156.66 149.51,-103.176 410.62,-167.461 410.62,-384.395 0,-257.445 -315.77,-284.601 -503.09,-231.879 -62.11,17.481 -103.75,35.43 -124.91,53.832 z m 1102.1,-193.23 c -86.55,-70.324 -254.02,-46.235 -330.56,21.394 -47.38,41.848 -71.08,101.446 -71.08,178.739 0,105.355 0,210.715 0,316.07 h -89.72 v 138.027 h 89.72 v 158.73 l 178.04,31.74 v -190.47 h 121.47 l 55.2,-138.027 H 3082.88 V 619.469 c 0,-105.875 84.15,-145.641 171.15,-102.137 z m 363.69,-30.363 c -211.79,0 -336.78,147.023 -336.78,353.336 0,209.898 137.04,350.577 347.82,350.577 214.99,0 350.58,-144.652 350.58,-357.476 0,-213.941 -152.63,-346.437 -361.62,-346.437 z m 176.67,346.437 c 0,102.957 -44.51,204.274 -161.49,204.274 -118.66,0 -167.01,-87.137 -167.01,-195.997 0,-103.957 34.96,-201.511 154.59,-201.511 117.99,0 173.91,81.828 173.91,193.234 z m 602.46,204.274 c -165.96,0 -203.33,-233.094 -118.7,-342.297 72.44,-93.477 201.71,-49.953 289.85,-9.664 l 51.07,-129.743 c -130.47,-99.773 -363.97,-92.527 -477.56,26.227 -124.53,130.184 -123.11,381.492 0,512.066 119.42,126.653 340.42,121.453 477.56,26.223 l -51.07,-128.359 c -55.5,25.367 -109.31,45.547 -171.15,45.547 z m 494.81,440.292 V 798.898 L 5231.2,1062.52 5331.95,935.539 5144.24,771.293 5389.92,373.789 h -205.65 l -168.39,282.945 -71.77,-63.492 V 373.789 h -178.05 v 959.261 z m 888.17,-485.839 c -41.84,19.129 -249.82,97.328 -249.82,-4.145 0,-34.933 72.74,-56.305 96.61,-64.867 100.88,-36.195 227.74,-103.34 227.74,-226.359 0,-245.477 -361.13,-255.149 -510.68,-140.786 l 53.83,129.743 c 67.27,-30.754 179.47,-69.497 251.2,-31.743 87.85,46.231 -45.01,113.329 -82.82,125.598 -95.59,31.027 -222.21,89.731 -222.21,207.035 0,248.893 340.49,234.893 489.98,133.883 l -53.83,-128.359" /><path
         id="path16"
         style="fill:#019934;fill-opacity:1;fill-rule:nonzero;stroke:none"
         d="m 6753.81,373.789 -129.97,126.75 C 6533.43,404.844 6426,356.992 6301.09,356.992 c -94.77,0 -168.8,24.446 -221.75,73.153 -53.09,48.82 -79.6,110.882 -79.6,186.332 0,123.992 74.53,219.226 223.83,285.707 -72.93,83.968 -109.27,160.796 -109.27,230.496 0,62.34 22.09,115.26 66.48,158.73 127.8,125.15 378.42,68.4 378.42,-129.74 0,-144.37 -112.29,-222.67 -231.88,-276.967 67.4,-71.543 166.31,-169.078 296.52,-292.609 56.12,83.734 86.03,181.043 89.71,292.609 h 64.64 c -3.22,-120.082 -40.49,-231.879 -111.8,-335.629 76.84,-75.449 138.02,-134.34 183.81,-176.668 z M 6284.07,928.41 c 97.65,43.367 209.8,103.14 209.8,225.21 0,85.56 -62.6,146.07 -147.69,146.07 -97.08,0 -166.55,-71.67 -166.55,-168.39 0,-57.51 34.96,-125.14 104.44,-202.89 z m 298.59,-386.234 c -149.07,144.234 -254.42,249.59 -316.07,316.07 -134.35,-58.195 -201.52,-137.332 -201.52,-237.168 0,-60.496 21.58,-110.48 64.41,-149.293 42.97,-38.933 101.91,-58.203 176.9,-58.203 102.83,0 195.08,42.789 276.28,128.594" /><path
         id="path18"
         style="fill:#184bb2;fill-opacity:1;fill-rule:nonzero;stroke:none"
         d="m 6930.38,373.789 v 938.551 h 293.99 c 102.13,0 189.56,-23.23 262.24,-69.7 155.6,-99.46 143.02,-369.503 -8.28,-466.515 -116.83,-74.906 -237.94,-75.223 -369.9,-75.223 V 373.789 Z m 288.47,789.491 H 7108.43 V 848.586 c 123.83,0 291.27,-15.898 298.13,151.824 4.89,119.56 -76.83,162.87 -187.71,162.87 z m 841.24,-120.08 35.89,-143.544 c -81.39,0 -164.74,-51.66 -223.6,-103.519 V 373.789 H 7692.95 V 1043.2 h 93.85 l 59.35,-97.997 c 56.46,48.922 137.03,97.997 213.94,97.997 z m 391.29,-685.973 c -211.78,0 -336.78,147.023 -336.78,353.336 0,209.898 137.04,350.577 347.82,350.577 214.99,0 350.58,-144.652 350.58,-357.476 0,-213.945 -152.63,-346.437 -361.62,-346.437 z m 176.67,346.437 c 0,102.957 -44.5,204.274 -161.49,204.274 -118.65,0 -167.01,-87.137 -167.01,-195.997 0,-103.961 34.96,-201.511 154.59,-201.511 117.99,0 173.91,81.824 173.91,193.234 z m 309.86,389.226 c 0,77.29 22.78,138.26 68.32,182.88 75.43,73.91 239.06,95.14 326.42,24.15 l -51.07,-129.74 c -45.27,18.11 -110.76,34.86 -142.85,-15.87 -23.93,-37.84 -21.39,-82.18 -21.39,-124.91 h 126.98 l 56.59,-139.408 H 9117.34 V 373.789 H 8937.91 V 889.992 H 8834.39 V 1029.4 h 103.52 z m 532.07,247.06 c 133.86,0 133.87,-201.51 0,-201.51 -130.41,0 -130.41,201.51 0,201.51 z m 89.71,-296.75 V 373.789 H 9380.26 V 1043.2 Z m 543.11,-655.61 c -86.5,-70.324 -254.01,-46.235 -330.56,21.394 -47.38,41.848 -71.08,101.446 -71.08,178.739 0,105.355 0,210.715 0,316.07 h -89.72 v 138.027 h 89.72 v 158.73 l 178.05,31.74 v -190.47 h 121.49 l 55.2,-138.027 H 9879.21 V 619.469 c 0,-105.879 84.14,-145.641 171.19,-102.137 l 52.4,-129.742" /><path
         id="path20"
         style="fill:none;stroke:#184bb2;stroke-width:70.8660965;stroke-linecap:butt;stroke-linejoin:miter;stroke-miterlimit:2.61310005;stroke-dasharray:none;stroke-opacity:1"
         d="M 737.566,44.7969 1436.43,447.191 1437.38,1253.63 739.465,1657.67 40.5977,1255.27 39.6484,448.836 Z" /><path
         id="path22"
         style="fill:#0034b7;fill-opacity:1;fill-rule:nonzero;stroke:none"
         d="m 345.324,737.207 326.281,-176.625 5.149,-6.941 74.117,-276.293 -319.644,177.136 -1.887,0.938 -84.063,281.383 0.047,0.402" /><path
         id="path24"
         style="fill:#019934;fill-opacity:1;fill-rule:nonzero;stroke:none"
         d="M 643.098,933.91 1187.66,1275.5 1184.61,632.68 1004.48,732.887 750.758,277.379 671.93,560.973 823.246,833.699 643.098,933.91" /><path
         id="path26"
         style="fill:#184bb2;fill-opacity:1;fill-rule:nonzero;stroke:none"
         d="M 149.543,385.219 345.313,737.148 430.922,454.797 330.719,280.332 149.543,385.219" /></g></g></svg>