<?xml version="1.0" encoding="UTF-8" standalone="no"?>
<svg
   xmlns:dc="http://purl.org/dc/elements/1.1/"
   xmlns:cc="http://creativecommons.org/ns#"
   xmlns:rdf="http://www.w3.org/1999/02/22-rdf-syntax-ns#"
   xmlns:svg="http://www.w3.org/2000/svg"
   xmlns="http://www.w3.org/2000/svg"
   viewBox="0 0 197.33333 226.66667"
   height="226.66667"
   width="197.33333"
   xml:space="preserve"
   id="svg2"
   version="1.1"><metadata
     id="metadata8"><rdf:RDF><cc:Work
         rdf:about=""><dc:format>image/svg+xml</dc:format><dc:type
           rdf:resource="http://purl.org/dc/dcmitype/StillImage" /></cc:Work></rdf:RDF></metadata><defs
     id="defs6" /><g
     transform="matrix(1.3333333,0,0,-1.3333333,0,226.66667)"
     id="g10"><g
       transform="scale(0.1)"
       id="g12"><path
         id="path14"
         style="fill:none;stroke:#184bb2;stroke-width:70.8660965;stroke-linecap:butt;stroke-linejoin:miter;stroke-miterlimit:2.61310005;stroke-dasharray:none;stroke-opacity:1"
         d="M 737.566,44.7969 1436.43,447.191 1437.38,1253.63 739.465,1657.67 40.5977,1255.27 39.6484,448.836 Z" /><path
         id="path16"
         style="fill:#0034b7;fill-opacity:1;fill-rule:nonzero;stroke:none"
         d="m 345.324,737.207 326.281,-176.625 5.149,-6.941 74.117,-276.293 -319.644,177.136 -1.887,0.938 -84.063,281.383 0.047,0.402" /><path
         id="path18"
         style="fill:#019934;fill-opacity:1;fill-rule:nonzero;stroke:none"
         d="M 643.098,933.91 1187.66,1275.5 1184.61,632.68 1004.48,732.887 750.758,277.379 671.93,560.973 823.246,833.699 643.098,933.91" /><path
         id="path20"
         style="fill:#184bb2;fill-opacity:1;fill-rule:nonzero;stroke:none"
         d="M 149.543,385.219 345.313,737.148 430.922,454.797 330.719,280.332 149.543,385.219" /></g></g></svg>