<?xml version="1.0" encoding="UTF-8" standalone="no"?>
<svg
   xmlns:dc="http://purl.org/dc/elements/1.1/"
   xmlns:cc="http://creativecommons.org/ns#"
   xmlns:rdf="http://www.w3.org/1999/02/22-rdf-syntax-ns#"
   xmlns:svg="http://www.w3.org/2000/svg"
   xmlns="http://www.w3.org/2000/svg"
   viewBox="0 0 93.333336 56"
   height="56"
   width="93.333336"
   xml:space="preserve"
   id="svg2"
   version="1.1"><metadata
     id="metadata8"><rdf:RDF><cc:Work
         rdf:about=""><dc:format>image/svg+xml</dc:format><dc:type
           rdf:resource="http://purl.org/dc/dcmitype/StillImage" /></cc:Work></rdf:RDF></metadata><defs
     id="defs6" /><g
     transform="matrix(1.3333333,0,0,-1.3333333,0,56)"
     id="g10"><g
       transform="scale(0.1)"
       id="g12"><path
         id="path14"
         style="fill:#1877f2;fill-opacity:1;fill-rule:evenodd;stroke:none"
         d="m 293.363,412.098 c 78.641,0 144.762,-53.657 163.77,-126.348 17.847,11.91 39.289,18.855 62.347,18.855 23.504,0 45.317,-7.214 63.368,-19.542 L 450.301,152.52 c -5.77,2.132 -12,3.3 -18.512,3.3 -8.32,0 -16.195,-1.906 -23.215,-5.304 l -95.469,85.957 c 1.368,4.718 2.098,9.703 2.098,14.855 0,29.469 -23.894,53.367 -53.359,53.367 -29.469,0 -53.367,-23.898 -53.367,-53.367 0,-4.941 0.679,-9.726 1.937,-14.269 L 12.543,82.4609 C 5.33984,98.3711 1.33203,116.039 1.33203,134.637 c 0,68.992 55.16017,125.129 123.77697,126.703 9.219,84.762 81.039,150.758 168.254,150.758 z M 613.215,254.324 c 11.855,-17.824 18.773,-39.215 18.773,-62.226 0,-1.063 -0.019,-2.125 -0.047,-3.184 38.532,-11.094 66.731,-46.617 66.731,-88.707 0,-50.625 -40.781,-91.73825 -91.274,-92.29294 V 7.90234 h -1.031 -477.558 v 0.00782 c -0.246,-0.00391 -0.493,-0.00782 -0.743,-0.00782 -35.8043,0 -68.1363,14.85936 -91.1871,38.73826 L 237.848,203.656 c 7.215,-3.64 15.363,-5.687 23.996,-5.687 7.914,0 15.429,1.722 22.187,4.816 l 96.184,-86.601 c -1.164,-4.383 -1.789,-8.981 -1.789,-13.727 0,-29.4687 23.894,-53.3672 53.363,-53.3672 29.465,0 53.363,23.8985 53.363,53.3672 0,7.051 -1.375,13.785 -3.859,19.945 l 131.922,131.922" /></g></g></svg>