<?xml version="1.0" encoding="UTF-8"?>
<!DOCTYPE svg PUBLIC "-//W3C//DTD SVG 1.1//EN" "http://www.w3.org/Graphics/SVG/1.1/DTD/svg11.dtd">
<!-- Creator: CorelDRAW -->
<svg xmlns="http://www.w3.org/2000/svg" xml:space="preserve" width="0.937in" height="0.159in" style="shape-rendering:geometricPrecision; text-rendering:geometricPrecision; image-rendering:optimizeQuality; fill-rule:evenodd; clip-rule:evenodd"
viewBox="0 0 0.937 0.159">
 <defs>
  <style type="text/css">
   <![CDATA[
    .fil0 {fill:black}
   ]]>
  </style>
 </defs>
 <g id="Layer_x0020_1">
  <metadata id="CorelCorpID_0Corel-Layer"/>
  <g id="_314000920">
   <path id="_314001952" class="fil0" d="M0.740638 0.0211496c-0.00435433,0.00233465 -0.00584252,0.00467323 -0.00594882,0.00934646 0,0.00584646 0.00456693,0.0103071 0.0105157,0.0103071 0.00573622,0 0.00956299,-0.00340157 0.0104134,-0.0091378 0.000425197,-0.00371654 0.000106299,-0.00488583 -0.00244488,-0.00775591 -0.00371654,-0.00403543 -0.0082874,-0.00499213 -0.0125354,-0.00275984z"/>
   <path id="_314001880" class="fil0" d="M0.446776 0.0387835l0 0.018063 -0.00308268 -0.00212598c-0.00977165,-0.00701181 -0.0232638,-0.00584252 -0.033252,0.00287008 -0.011685,0.0104094 -0.0129606,0.0333583 -0.00233858,0.0457874 0.00966929,0.0112638 0.0234803,0.0137047 0.0347402,0.00605512l0.00382677 -0.00265354 0.000318898 0.00286614c0.000318898,0.00276378 0.000531496,0.00287008 0.0086063,0.00318898l0.00817717 0.000318898 0 -0.0925354 -0.0169961 0 0 0.0181654zm-0.00531102 0.0294291c0.00626772,0.00477953 0.00860236,0.0151929 0.00477953,0.0225236 -0.00520472,0.0100906 -0.022311,0.00977559 -0.0266654,-0.000531496 -0.00308268,-0.00733071 -0.00148819,-0.0164685 0.00361024,-0.0210354 0.00467717,-0.00424803 0.0131732,-0.00467323 0.0182756,-0.000956693z"/>
   <path id="_314001808" class="fil0" d="M0.480134 0.0242283c-0.00254724,0.00255118 -0.00361024,0.00457087 -0.00361024,0.00701181 0,0.00244488 0.00106299,0.00435827 0.00361024,0.00701181 0.00403937,0.00403937 0.00743701,0.00457087 0.0123228,0.00201969 0.00372047,-0.00191339 0.00531496,-0.00456693 0.00531496,-0.0090315 0,-0.00446063 -0.00159449,-0.00711811 -0.00531496,-0.0090315 -0.00488583,-0.00254724 -0.00828346,-0.00201575 -0.0123228,0.00201969z"/>
   <polygon id="_314001736" class="fil0" points="0.010126,0.0423976 0.010126,0.0599252 0.044122,0.0599252 0.044122,0.113047 0.0781181,0.113047 0.0781181,0.0248661 0.010126,0.0248661 "/>
   <path id="_314001664" class="fil0" d="M0.104043 0.0259291c-0.00191339,0.000425197 -0.00510236,0.00180709 -0.00711811,0.00308268 -0.014874,0.00924016 -0.00924409,0.0329331 0.00828346,0.0349528 0.0090315,0.000956693 0.0164685,-0.00372047 0.0205079,-0.0128583 0.00541732,-0.0125354 -0.0079685,-0.0280472 -0.0216732,-0.0251772z"/>
   <path id="_314001592" class="fil0" d="M0.143138 0.0275236c-0.00286614,0.00616142 -0.0352717,0.084248 -0.0352717,0.0848858 0,0.000318898 0.0085,0.000637795 0.0190157,0.000637795 0.00633858,0 0.0126811,0 0.0190197,0l0.00212205 -0.00510236c0.0080748,-0.0189094 0.0342126,-0.0819094 0.0342126,-0.0824409 0,-0.000318898 -0.0085,-0.000637795 -0.0189134,-0.000637795 -0.00633858,0 -0.0126772,0 -0.0190157,0l-0.00116929 0.00265748z"/>
   <path id="_314001520" class="fil0" d="M0.220906 0.026248c-0.000318898,0.000850394 -0.000425197,0.00477953 -0.000212598,0.0088189l0.000318898 0.00733071 0.0228425 0.000637795 0 0.0701181 0.0175315 -0.000637795c0.000212598,-0.0231614 0.000389764,-0.0463228 0.000531496,-0.0694803l0.0228386 -0.000637795 0 -0.017 -0.0316575 -0.000318898c-0.0259252,-0.000212598 -0.0316614,0 -0.0321929,0.00116929z"/>
   <path id="_314001448" class="fil0" d="M0.642366 0.0256102c0,0.000425197 0.0080748,0.020185 0.0178465,0.043878 0.00591732,0.0143386 0.0118307,0.028685 0.0177441,0.0430276l0.00754331 0.000318898c0.00658661,0.000212598 0.00775591,0 0.00870866,-0.00170079 0.00180709,-0.00329528 0.0351654,-0.0843543 0.0351654,-0.085311 0,-0.000531496 -0.00424803,-0.000956693 -0.00945276,-0.000956693 -0.00315354,0 -0.00630315,0 -0.00945669,0l-0.0122165 0.0304921c-0.00935039,0.0232677 -0.0124291,0.0300669 -0.0130669,0.0284724 -0.000425197,-0.00116929 -0.00595276,-0.0147677 -0.0122205,-0.0302795l-0.0114724 -0.0281535 -0.00956299 -0.000318898c-0.00531102,-0.000106299 -0.00966535,0.000106299 -0.00955906,0.000531496z"/>
   <path id="_314001376" class="fil0" d="M0.350201 0.0505787c-0.00509843,0.000846457 -0.0122165,0.00467323 -0.0157205,0.00849606 -0.00127559,0.00127559 -0.00361417,0.00531496 -0.00520866,0.0087126 -0.00520472,0.0113701 -0.00329134,0.0264528 0.00446457,0.0355906 0.00966535,0.0112638 0.0234764,0.0137047 0.0347402,0.00605512l0.00382283 -0.00265354 0.000318898 0.00286614c0.000318898,0.00276378 0.000531496,0.00287008 0.0086063,0.00318898l0.0081811 0.000318898 0 -0.0617283c-0.00283465,0 -0.00566535,0 -0.0085,0 -0.0083937,0 -0.0085,3.93701e-006 -0.0085,0.00265748 0,0.000885827 0,0.00177165 0,0.00265748l-0.00403543 -0.00265748c-0.00488976,-0.00318898 -0.0120079,-0.00467323 -0.0181693,-0.00350394zm0.0166811 0.0174213c0.00648031,0.00425197 0.0088189,0.0163622 0.00446063,0.0234803 -0.00541732,0.0090315 -0.0200787,0.0090315 -0.0254961,0 -0.00308268,-0.00488976 -0.00286614,-0.0141299 0.000318898,-0.0189134 0.00467323,-0.00700787 0.0139173,-0.00902756 0.0207165,-0.00456693z"/>
   <path id="_314000680" class="fil0" d="M0.540799 0.0502598c-0.00457087,0.000740157 -0.011689,0.00456693 -0.0126417,0.00679921 -0.000216535,0.000744094 -0.000531496,-0.000318898 -0.000531496,-0.00223228l-0.000106299 -0.00340157 -0.017 0 0 0.0617283 0.0164685 -0.000637795 0.000531496 -0.0185945c0.000637795,-0.0205039 0.00159055,-0.0240079 0.00743701,-0.0270906 0.00690551,-0.00350394 0.0139173,-0.000637795 0.0159331,0.00669291 0.000531496,0.00212598 0.00106299,0.0120079 0.00106299,0.0217795 0,0.00594882 0,0.0119016 0,0.0178504l0.0164685 -0.000637795c0,-0.00708268 0,-0.0141654 0,-0.021248 0,-0.0227362 -0.000637795,-0.0267756 -0.00552362,-0.033252 -0.00456693,-0.00605906 -0.0133858,-0.0091378 -0.0220984,-0.00775591z"/>
   <path id="_314000704" class="fil0" d="M0.601354 0.0502598c-0.0186378,0.00448031 -0.027185,0.0276339 -0.0192283,0.0441929 0.0078622,0.015937 0.0271969,0.0220984 0.0395197,0.012752l0.00361417 -0.00276378c0,0.00127559 0,0.00255118 0,0.00382283 0,0.00488976 -0.00212598,0.0090315 -0.00658661,0.012752 -0.00318898,0.00265354 -0.00393307,0.00286614 -0.0114764,0.00244094 -0.00679921,-0.000212598 -0.00892126,-0.000850394 -0.0126417,-0.00329134 -0.00254724,-0.00170079 -0.00488583,-0.00265748 -0.00531102,-0.00212598 -0.00584252,0.00690551 -0.0078622,0.0103071 -0.00679921,0.0118976 0.00180709,0.00287008 0.00935039,0.00648425 0.0172126,0.0080748 0.013811,0.00297638 0.0280472,-0.000744094 0.0355906,-0.00902756 0.00637402,-0.00711811 0.00701181,-0.0111575 0.00701181,-0.0469606 0,-0.0105866 0,-0.0211772 0,-0.0317638 -0.00272835,0.000106299 -0.00545669,0.000212598 -0.0081811,0.000318898 -0.0081811,0.000314961 -0.0082874,0.000314961 -0.0088189,0.00339764l-0.000531496 0.00297638 -0.00201969 -0.00223228c-0.00222835,-0.00244488 -0.0110472,-0.00552362 -0.0154055,-0.00531102 -0.00148425,0.000106299 -0.00414173,0.000425197 -0.00594882,0.000850394zm0.0182756 0.0171024c0.00435433,0.00265748 0.00690551,0.00754331 0.00690551,0.0133858 0,0.0114764 -0.0115827,0.0185945 -0.0220984,0.0135984 -0.00977559,-0.00467323 -0.0114764,-0.0184843 -0.00308268,-0.025815 0.00318898,-0.00276378 0.00467717,-0.00329528 0.00935039,-0.00329528 0.00361417,0 0.00669291,0.000744094 0.0089252,0.00212598z"/>
   <path id="_314000776" class="fil0" d="M0.791421 0.0503661c-0.0103071,0.00148425 -0.0182756,0.00701181 -0.0232677,0.0160394 -0.00286614,0.00520866 -0.00318504,0.00669291 -0.00318504,0.0152992 0,0.0082874 0.000425197,0.0103071 0.00286614,0.0149803 0.00988189,0.0189094 0.0365472,0.023374 0.0522717,0.0088189 0.00605512,-0.00562992 0.00637402,-0.00467717 -0.00276378,-0.0111575l-0.00392913 -0.00275984 -0.00393307 0.00297244c-0.00499213,0.00393307 -0.0150866,0.00478346 -0.0210354,0.00201969 -0.00350394,-0.00170079 -0.00701181,-0.00616142 -0.00701181,-0.0089252 0,-0.000744094 0.0079685,-0.00127559 0.0226299,-0.00137795l0.0225236 -0.000318898 -0.000212598 -0.00711811c-0.000637795,-0.0195512 -0.0151929,-0.0313425 -0.0349528,-0.0284724zm0.012748 0.0158268c0.00287008,0.00191339 0.00584252,0.00584646 0.00594882,0.00775591 0,0.000531496 -0.00648031,0.000850394 -0.0143425,0.000850394 -0.0078622,0 -0.0143425,-0.000318898 -0.0143425,-0.000850394 0,-0.00169685 0.00361417,-0.00573622 0.00679921,-0.00775591 0.00435827,-0.00265354 0.0119016,-0.00265354 0.015937,0z"/>
   <path id="_314001160" class="fil0" d="M0.309512 0.0524882c-0.00212598,0.00116929 -0.00467323,0.00318898 -0.00552362,0.00446457 -0.00170079,0.00233465 -0.00170079,0.00233465 -0.00170079,-0.00159449 0,-0.00131102 0,-0.00262205 0,-0.00393307l-0.017 0 0 0.0617283c0.00549213,-0.000212598 0.0109803,-0.000425197 0.0164685,-0.000637795l0.000531496 -0.0185945c0.000425197,-0.0154016 0.000850394,-0.0192283 0.00233858,-0.021563 0.00275984,-0.00403937 0.00562992,-0.00520866 0.0121102,-0.00478346l0.00584252 0.000318898 -0.000637795 -0.017 -0.00424803 -0.000208661c-0.00265748,-0.000212598 -0.00573622,0.000527559 -0.0081811,0.00180315z"/>
   <path id="_314001112" class="fil0" d="M0.479177 0.0528071c-0.000318898,0.000744094 -0.000425197,0.0144488 -0.000318898,0.0304921l0.000318898 0.0292165c0.00549213,0.000208661 0.0109803,0.00042126 0.0164685,0.000637795l0 -0.0617283c-0.00265748,0 -0.00531102,0 -0.0079685,0 -0.00552362,0 -0.0081811,0.000425197 -0.0085,0.00138189z"/>
   <path id="_314000608" class="fil0" d="M0.736811 0.0822362l0 0.0309173c0.00549213,-0.000212598 0.0109803,-0.000425197 0.0164685,-0.000637795 0.000212598,-0.0203622 0.000389764,-0.0407244 0.000531496,-0.0610906l-0.017 0 0 0.030811z"/>
   <path id="_314001088" class="fil0" d="M0.830303 0.0516378c0,0.000212598 0.00457087,0.0139173 0.00998819,0.0305984l0.00998819 0.0302795 0.0166772 0 0.00531496 -0.0161496c0.00297244,-0.0088189 0.00552362,-0.0163622 0.00584252,-0.0166811 0.000318898,-0.000314961 0.00318504,0.00711811 0.00626772,0.0164685l0.00562992 0.017 0.0162559 -0.000637795c0.00685827,-0.0203661 0.0137283,-0.0407283 0.0206102,-0.0610906l-0.0184843 0 -0.00531496 0.0185945c-0.00286614,0.0101969 -0.00552362,0.0185906 -0.00584252,0.0185906 -0.000318898,0 -0.00318504,-0.0082874 -0.00648031,-0.018378l-0.00573622 -0.0182756 -0.0131732 -0.000637795c-0.00411417,0.0129724 -0.00825591,0.0259331 -0.0124331,0.0388858 -0.00381102,-0.0129213 -0.00760236,-0.0258465 -0.0113661,-0.0387795 -0.00297638,0 -0.00594882,0 -0.0089252,0 -0.00477953,0 -0.0088189,0.000106299 -0.0088189,0.000212598z"/>
  </g>
 </g>
</svg>
